<?xml version="1.0" encoding="iso-8859-1"?>
<!-- Generator: Adobe Illustrator 19.0.0, SVG Export Plug-In . SVG Version: 6.00 Build 0)  -->
<svg version="1.1" id="Layer_1" xmlns="http://www.w3.org/2000/svg" xmlns:xlink="http://www.w3.org/1999/xlink" x="0px" y="0px"
	 viewBox="0 0 512 512" style="enable-background:new 0 0 512 512;" xml:space="preserve">
<path style="fill:#00D7DF;" d="M438.904,182.857C438.904,81.869,357.221,0,256.23,0S73.096,81.869,73.096,182.857
	c0,88.068,62.892,161.579,144.9,178.952V512h73.143V362.248C375.365,345.731,438.904,271.71,438.904,182.857z"/>
<path style="fill:#00A1A7;" d="M438.534,182.857C438.534,81.869,357.633,0,255.676,0c0,121.905,0,512,0,512h35.463V362.248
	C375.365,345.731,438.534,271.71,438.534,182.857z"/>
<rect x="218.741" y="437.749" style="fill:#FF5023;" width="73.143" height="74.251"/>
<path style="fill:#BF3C1A;" d="M256.414,437.749c0,40.57,0,74.251,0,74.251h35.463v-74.251H256.414z"/>
<path style="fill:#CCF7F9;" d="M256.414,292.571c-60.496,0-109.714-49.219-109.714-109.714S195.919,73.143,256.414,73.143
	s109.714,49.218,109.714,109.714S316.91,292.571,256.414,292.571z"/>
<path style="fill:#00D7DF;" d="M256.414,73.143c60.496,0,109.714,49.218,109.714,109.714S316.91,292.571,256.414,292.571"/>
<g>
</g>
<g>
</g>
<g>
</g>
<g>
</g>
<g>
</g>
<g>
</g>
<g>
</g>
<g>
</g>
<g>
</g>
<g>
</g>
<g>
</g>
<g>
</g>
<g>
</g>
<g>
</g>
<g>
</g>
</svg>